<svg xmlns="http://www.w3.org/2000/svg" width="1200" height="1600" viewBox="0 0 1200 1600" fill="none">
  <rect width="1200" height="1600" fill="#F8F3EC"/>
  <rect x="90" y="110" width="1020" height="1380" rx="36" fill="#FFFDF9"/>
  <rect x="150" y="220" width="900" height="300" rx="28" fill="#EFE3D3"/>
  <circle cx="250" cy="370" r="70" fill="#C78E57"/>
  <rect x="360" y="300" width="540" height="34" rx="17" fill="#9A6A40" opacity="0.9"/>
  <rect x="360" y="356" width="460" height="24" rx="12" fill="#B58D68" opacity="0.8"/>
  <rect x="360" y="400" width="500" height="24" rx="12" fill="#B58D68" opacity="0.8"/>
  <rect x="150" y="650" width="900" height="300" rx="28" fill="#E7F0E0"/>
  <rect x="200" y="730" width="110" height="110" rx="20" fill="#8AA77A"/>
  <path d="M350 786H850" stroke="#6A8860" stroke-width="18" stroke-linecap="round"/>
  <path d="M780 726L850 786L780 846" stroke="#6A8860" stroke-width="18" stroke-linecap="round" stroke-linejoin="round"/>
  <rect x="150" y="1080" width="900" height="300" rx="28" fill="#E2EAF5"/>
  <path d="M235 1216C235 1166 275 1126 325 1126H347C397 1126 437 1166 437 1216V1244H235V1216Z" fill="#7C9BC7"/>
  <rect x="500" y="1160" width="360" height="34" rx="17" fill="#5E7FAE" opacity="0.9"/>
  <rect x="500" y="1218" width="290" height="24" rx="12" fill="#7C9BC7" opacity="0.85"/>
  <rect x="500" y="1262" width="340" height="24" rx="12" fill="#7C9BC7" opacity="0.85"/>
</svg>